<svg id="visual" viewBox="0 0 900 100" width="900" height="100" xmlns="http://www.w3.org/2000/svg" xmlns:xlink="http://www.w3.org/1999/xlink" version="1.1"><rect x="0" y="0" width="900" height="100" fill="#3f474f"></rect><path d="M0 54L129 54L129 48L257 48L257 37L386 37L386 53L514 53L514 54L643 54L643 47L771 47L771 53L900 53L900 56L900 0L900 0L771 0L771 0L643 0L643 0L514 0L514 0L386 0L386 0L257 0L257 0L129 0L129 0L0 0Z" fill="#31373d"></path><path d="M0 33L129 33L129 28L257 28L257 25L386 25L386 38L514 38L514 25L643 25L643 29L771 29L771 36L900 36L900 35L900 0L900 0L771 0L771 0L643 0L643 0L514 0L514 0L386 0L386 0L257 0L257 0L129 0L129 0L0 0Z" fill="#292e33"></path><path d="M0 25L129 25L129 8L257 8L257 23L386 23L386 8L514 8L514 14L643 14L643 12L771 12L771 15L900 15L900 21L900 0L900 0L771 0L771 0L643 0L643 0L514 0L514 0L386 0L386 0L257 0L257 0L129 0L129 0L0 0Z" fill="#212529"></path></svg>