<svg id="visual" viewBox="0 0 900 100" width="900" height="100" xmlns="http://www.w3.org/2000/svg" xmlns:xlink="http://www.w3.org/1999/xlink" version="1.1"><rect x="0" y="0" width="900" height="100" fill="#3f474f"></rect><path d="M0 49L129 49L129 56L257 56L257 54L386 54L386 51L514 51L514 42L643 42L643 61L771 61L771 56L900 56L900 51L900 101L900 101L771 101L771 101L643 101L643 101L514 101L514 101L386 101L386 101L257 101L257 101L129 101L129 101L0 101Z" fill="#30353a"></path><path d="M0 58L129 58L129 72L257 72L257 61L386 61L386 62L514 62L514 58L643 58L643 64L771 64L771 67L900 67L900 66L900 101L900 101L771 101L771 101L643 101L643 101L514 101L514 101L386 101L386 101L257 101L257 101L129 101L129 101L0 101Z" fill="#282d31"></path><path d="M0 76L129 76L129 73L257 73L257 84L386 84L386 73L514 73L514 73L643 73L643 80L771 80L771 77L900 77L900 89L900 101L900 101L771 101L771 101L643 101L643 101L514 101L514 101L386 101L386 101L257 101L257 101L129 101L129 101L0 101Z" fill="#212529"></path></svg>